<svg id="BACKGROUND_2" data-name="BACKGROUND 2" xmlns="http://www.w3.org/2000/svg" xmlns:xlink="http://www.w3.org/1999/xlink" viewBox="0 0 487.87 371.07"><defs><linearGradient id="Градієнт_без_назви_5" x1="129.25" y1="270.15" x2="216.25" y2="380.15" gradientTransform="matrix(-1, 0, 0, 1, 486, 0)" gradientUnits="userSpaceOnUse"><stop offset="0" stop-color="#c4e6fc"/><stop offset="1" stop-color="#a9d7f5"/></linearGradient><linearGradient id="Градієнт_без_назви_5-2" x1="290" y1="221.49" x2="362" y2="377.49" xlink:href="#Градієнт_без_назви_5"/></defs><title>bg1</title><path d="M485.11,339.76s-8.94-78.32-84-58.9c-112.63,29.16-86.25-33-174.76-28.78-82.23,3.89-81.84,87.68-81.84,87.68Z" transform="translate(2.77 -1.46)" style="fill:url(#Градієнт_без_назви_5)"/><path d="M270.43,172.35c-46.71-102.28-220.74-98.66-267,1.78" transform="translate(2.77 -1.46)" style="fill:none;stroke:#d3ecfc;stroke-linecap:round;stroke-linejoin:round;stroke-width:7.31989704342323px"/><path d="M263.23,137.62C235.47,98.11,187.78,81,138.34,81" transform="translate(2.77 -1.46)" style="fill:none;stroke:#d3ecfc;stroke-linecap:round;stroke-linejoin:round;stroke-width:7.31989704342323px"/><path d="M13.46,137.62C41.22,98.11,88.91,81,138.34,81" transform="translate(2.77 -1.46)" style="fill:none;stroke:#d3ecfc;stroke-linecap:round;stroke-linejoin:round;stroke-width:7.31989704342323px"/><path d="M256.79,113C228.45,79.39,184.15,64.7,138.34,64.71" transform="translate(2.77 -1.46)" style="fill:none;stroke:#d3ecfc;stroke-linecap:round;stroke-linejoin:round;stroke-width:7.31989704342323px"/><path d="M19.9,113C48.23,79.39,92.54,64.7,138.34,64.71" transform="translate(2.77 -1.46)" style="fill:none;stroke:#d3ecfc;stroke-linecap:round;stroke-linejoin:round;stroke-width:7.31989704342323px"/><path d="M249.43,89.52c-28.32-27.95-69.07-40.31-111.09-40.3" transform="translate(2.77 -1.46)" style="fill:none;stroke:#d3ecfc;stroke-linecap:round;stroke-linejoin:round;stroke-width:7.31989704342323px"/><path d="M27.26,89.52c28.32-27.95,69.07-40.31,111.08-40.3" transform="translate(2.77 -1.46)" style="fill:none;stroke:#d3ecfc;stroke-linecap:round;stroke-linejoin:round;stroke-width:7.31989704342323px"/><path d="M234.9,62.6C208,43.25,173.62,34.54,138.34,34.54" transform="translate(2.77 -1.46)" style="fill:none;stroke:#d3ecfc;stroke-linecap:round;stroke-linejoin:round;stroke-width:7.31989704342323px"/><path d="M41.78,62.6c26.89-19.35,61.28-28.06,96.56-28.06" transform="translate(2.77 -1.46)" style="fill:none;stroke:#d3ecfc;stroke-linecap:round;stroke-linejoin:round;stroke-width:7.31989704342323px"/><path d="M263.23,265.8c-27.76,39.51-75.45,56.62-124.89,56.61" transform="translate(2.77 -1.46)" style="fill:none;stroke:#d3ecfc;stroke-linecap:round;stroke-linejoin:round;stroke-width:7.31989704342323px"/><path d="M16.62,267.26c27.75,39.5,72.29,55.16,121.72,55.15" transform="translate(2.77 -1.46)" style="fill:none;stroke:#d3ecfc;stroke-linecap:round;stroke-linejoin:round;stroke-width:7.31989704342323px"/><path d="M256.79,290.45c-28.34,33.58-72.64,48.27-118.45,48.26" transform="translate(2.77 -1.46)" style="fill:none;stroke:#d3ecfc;stroke-linecap:round;stroke-linejoin:round;stroke-width:7.31989704342323px"/><path d="M19.9,290.45C48.23,324,92.54,338.72,138.34,338.71" transform="translate(2.77 -1.46)" style="fill:none;stroke:#d3ecfc;stroke-linecap:round;stroke-linejoin:round;stroke-width:7.31989704342323px"/><path d="M249.43,313.9c-28.32,28-69.07,40.31-111.09,40.3" transform="translate(2.77 -1.46)" style="fill:none;stroke:#d3ecfc;stroke-linecap:round;stroke-linejoin:round;stroke-width:7.31989704342323px"/><path d="M27.26,313.9c28.32,28,69.07,40.31,111.08,40.3" transform="translate(2.77 -1.46)" style="fill:none;stroke:#d3ecfc;stroke-linecap:round;stroke-linejoin:round;stroke-width:7.31989704342323px"/><path d="M234.9,340.82c-26.89,19.35-61.28,28.06-96.56,28.06" transform="translate(2.77 -1.46)" style="fill:none;stroke:#d3ecfc;stroke-linecap:round;stroke-linejoin:round;stroke-width:7.31989704342323px"/><path d="M41.78,340.82c26.89,19.35,61.28,28.06,96.56,28.06" transform="translate(2.77 -1.46)" style="fill:none;stroke:#d3ecfc;stroke-linecap:round;stroke-linejoin:round;stroke-width:7.31989704342323px"/><path d="M217.38,38.11c-23.58-11.94-51-17.43-79-17.43" transform="translate(2.77 -1.46)" style="fill:none;stroke:#d3ecfc;stroke-linecap:round;stroke-linejoin:round;stroke-width:7.31989704342323px"/><path d="M59.31,38.11c23.58-11.94,51-17.43,79-17.43" transform="translate(2.77 -1.46)" style="fill:none;stroke:#d3ecfc;stroke-linecap:round;stroke-linejoin:round;stroke-width:7.31989704342323px"/><path d="M274.17,197.31c-10.94-6.5-15.32-19.52-24.74-32.53s-33.82-52.87-111.09-52.87" transform="translate(2.77 -1.46)" style="fill:none;stroke:#d3ecfc;stroke-linecap:round;stroke-linejoin:round;stroke-width:7.31989704342323px"/><path d="M2.52,197.31c10.94-6.5,15.32-19.52,24.74-32.53s33.82-52.87,111.08-52.87" transform="translate(2.77 -1.46)" style="fill:none;stroke:#d3ecfc;stroke-linecap:round;stroke-linejoin:round;stroke-width:7.31989704342323px"/><path d="M247.6,260.21c-11,14.13-36.87,46.9-109.26,46.9" transform="translate(2.77 -1.46)" style="fill:none;stroke:#d3ecfc;stroke-linecap:round;stroke-linejoin:round;stroke-width:7.31989704342323px"/><path d="M138.34,307.11" transform="translate(2.77 -1.46)" style="fill:none;stroke:#d3ecfc;stroke-linecap:round;stroke-linejoin:round;stroke-width:7.31989704342323px"/><path d="M29.09,260.21c11,14.13,36.87,46.9,109.25,46.9" transform="translate(2.77 -1.46)" style="fill:none;stroke:#d3ecfc;stroke-linecap:round;stroke-linejoin:round;stroke-width:7.31989704342323px"/><path d="M138.34,307.11" transform="translate(2.77 -1.46)" style="fill:none;stroke:#d3ecfc;stroke-linecap:round;stroke-linejoin:round;stroke-width:7.31989704342323px"/><path d="M227,257.5c-13.81,18.43-41.21,34.16-88.66,34.16" transform="translate(2.77 -1.46)" style="fill:none;stroke:#d3ecfc;stroke-linecap:round;stroke-linejoin:round;stroke-width:7.31989704342323px"/><path d="M138.34,291.66" transform="translate(2.77 -1.46)" style="fill:none;stroke:#d3ecfc;stroke-linecap:round;stroke-linejoin:round;stroke-width:7.31989704342323px"/><path d="M138.34,291.66" transform="translate(2.77 -1.46)" style="fill:none;stroke:#d3ecfc;stroke-linecap:round;stroke-linejoin:round;stroke-width:7.31989704342323px"/><path d="M138.34,291.66" transform="translate(2.77 -1.46)" style="fill:none;stroke:#d3ecfc;stroke-linecap:round;stroke-linejoin:round;stroke-width:7.31989704342323px"/><path d="M43.19,252.62c15.62,19.52,43.13,39,95.15,39" transform="translate(2.77 -1.46)" style="fill:none;stroke:#d3ecfc;stroke-linecap:round;stroke-linejoin:round;stroke-width:7.31989704342323px"/><path d="M138.34,291.66" transform="translate(2.77 -1.46)" style="fill:none;stroke:#d3ecfc;stroke-linecap:round;stroke-linejoin:round;stroke-width:7.31989704342323px"/><path d="M138.34,291.66" transform="translate(2.77 -1.46)" style="fill:none;stroke:#d3ecfc;stroke-linecap:round;stroke-linejoin:round;stroke-width:7.31989704342323px"/><path d="M138.34,291.66" transform="translate(2.77 -1.46)" style="fill:none;stroke:#d3ecfc;stroke-linecap:round;stroke-linejoin:round;stroke-width:7.31989704342323px"/><path d="M200.19,260.75c-12.23,10.84-37.72,14.64-61.85,14.64" transform="translate(2.77 -1.46)" style="fill:none;stroke:#d3ecfc;stroke-linecap:round;stroke-linejoin:round;stroke-width:7.31989704342323px"/><path d="M138.34,275.39" transform="translate(2.77 -1.46)" style="fill:none;stroke:#d3ecfc;stroke-linecap:round;stroke-linejoin:round;stroke-width:7.31989704342323px"/><path d="M138.34,275.39" transform="translate(2.77 -1.46)" style="fill:none;stroke:#d3ecfc;stroke-linecap:round;stroke-linejoin:round;stroke-width:7.31989704342323px"/><path d="M138.34,275.39" transform="translate(2.77 -1.46)" style="fill:none;stroke:#d3ecfc;stroke-linecap:round;stroke-linejoin:round;stroke-width:7.31989704342323px"/><path d="M55.66,241.77c21.37,27.48,52.49,33.62,83.23,33.62" transform="translate(2.77 -1.46)" style="fill:none;stroke:#d3ecfc;stroke-linecap:round;stroke-linejoin:round;stroke-width:7.31989704342323px"/><path d="M138.89,275.39" transform="translate(2.77 -1.46)" style="fill:none;stroke:#d3ecfc;stroke-linecap:round;stroke-linejoin:round;stroke-width:7.31989704342323px"/><path d="M138.89,275.39" transform="translate(2.77 -1.46)" style="fill:none;stroke:#d3ecfc;stroke-linecap:round;stroke-linejoin:round;stroke-width:7.31989704342323px"/><path d="M138.89,275.39" transform="translate(2.77 -1.46)" style="fill:none;stroke:#d3ecfc;stroke-linecap:round;stroke-linejoin:round;stroke-width:7.31989704342323px"/><path d="M275.8,218.46c-11.39-4.07-25.82-22.35-38.4-39.78-25.86-35.86-45.38-51.31-99.05-51.31" transform="translate(2.77 -1.46)" style="fill:none;stroke:#d3ecfc;stroke-linecap:round;stroke-linejoin:round;stroke-width:7.31989704342323px"/><path d="M.89,218.46c11.39-4.07,25.83-22.35,38.4-39.78,25.86-35.86,45.38-51.31,99.06-51.31" transform="translate(2.77 -1.46)" style="fill:none;stroke:#d3ecfc;stroke-linecap:round;stroke-linejoin:round;stroke-width:7.31989704342323px"/><path d="M204,15.94c-17.51-5.41-36.08-10.82-67-10.82" transform="translate(2.77 -1.46)" style="fill:none;stroke:#d3ecfc;stroke-linecap:round;stroke-linejoin:round;stroke-width:7.31989704342323px"/><path d="M72.74,15.94c17.51-5.41,36.08-10.82,67-10.82" transform="translate(2.77 -1.46)" style="fill:none;stroke:#d3ecfc;stroke-linecap:round;stroke-linejoin:round;stroke-width:7.31989704342323px"/><path d="M274.17,236.35c-56.12-23.59-49-94.34-137-94.34a57.75,57.75,0,1,0,0,115.49c58,0,76.43-27.48,132.55-8.78" transform="translate(2.77 -1.46)" style="fill:none;stroke:#d3ecfc;stroke-linecap:round;stroke-linejoin:round;stroke-width:7.31989704342323px"/><path d="M2.52,236.35C38.39,221.28,48.44,186.93,74,164.11" transform="translate(2.77 -1.46)" style="fill:none;stroke:#d3ecfc;stroke-linecap:round;stroke-linejoin:round;stroke-width:7.31989704342323px"/><path d="M236.23,227.57c-8.19-8.35-14.8-17.43-21-26-18.27-25.12-37.37-45-78-45a43.11,43.11,0,1,0,0,86.21c21.46,0,37.07-4.11,52.16-8.09,14-3.68,27.52-7.25,43.63-7.25C234.07,227.52,235.14,227.54,236.23,227.57Z" transform="translate(2.77 -1.46)" style="fill:none;stroke:#d3ecfc;stroke-linecap:round;stroke-linejoin:round;stroke-width:7.31989704342323px"/><path d="M137.21,228.22c19.57,0,33.59-3.7,48.43-7.61,7-1.83,14.08-3.7,21.58-5.14q-2-2.68-3.83-5.25c-17.66-24.28-34.95-38.93-66.18-38.93a28.47,28.47,0,1,0,0,56.93Z" transform="translate(2.77 -1.46)" style="fill:none;stroke:#d3ecfc;stroke-linecap:round;stroke-linejoin:round;stroke-width:7.31989704342323px"/><path d="M137.21,213.58c17.68,0,30.2-3.3,44.7-7.12l.33-.09c-5.07-6.37-20.57-20.44-45-20.44a13.83,13.83,0,1,0,0,27.65Z" transform="translate(2.77 -1.46)" style="fill:none;stroke:#d3ecfc;stroke-linecap:round;stroke-linejoin:round;stroke-width:7.31989704342323px"/><path d="M3.47,251.53c34-3.79,53.27-45.54,60.32-54.22,0,0-4.48,24.4,10.19,40.67" transform="translate(2.77 -1.46)" style="fill:none;stroke:#d3ecfc;stroke-linecap:round;stroke-linejoin:round;stroke-width:7.31989704342323px"/><path d="M304.61,339.76s2.8-42.25-43.91-42.25-83.06-1.52-93.48-64.9c-8.5-51.67-88.67-52.3-106.21-10s-48.2,42.26-48.2,42.26v74.94Z" transform="translate(2.77 -1.46)" style="fill:url(#Градієнт_без_назви_5-2)"/></svg>