<svg id="OBJECTS" xmlns="http://www.w3.org/2000/svg" xmlns:xlink="http://www.w3.org/1999/xlink" viewBox="0 0 230 140"><defs><clipPath id="clip-path" transform="translate(-115.9 -214.21)"><rect x="138.44" y="261.81" width="46.49" height="46.49" style="fill:none"/></clipPath></defs><title>icon-passport-front</title><rect width="230" height="140" rx="12.96" style="fill:#edf0f4"/><text transform="translate(58.89 32.96)" style="font-size:32px;fill:#aeb7c1;font-family:GillSans, Gill Sans">Passport</text><rect x="22.54" y="47.6" width="46.49" height="46.49" style="fill:#fff"/><rect x="18" y="47.6" width="80" height="80" style="fill:none"/><rect x="80.19" y="91.41" width="131.81" height="5.48" style="fill:#aeb7c1"/><rect x="22.54" y="102.36" width="189.46" height="22.93" style="fill:#aeb7c1"/><rect x="80.19" y="47.6" width="131.81" height="5.48" style="fill:#aeb7c1"/><rect x="80.19" y="58.55" width="131.81" height="5.48" style="fill:#aeb7c1"/><rect x="80.19" y="69.5" width="131.81" height="5.48" style="fill:#aeb7c1"/><rect x="80.19" y="80.46" width="131.81" height="5.48" style="fill:#aeb7c1"/><g style="clip-path:url(#clip-path)"><path d="M173.62,271.72a12.73,12.73,0,0,1,.88,3.94c.05,2.65.16,6.88-2.66,10-2.13,2.41-7.11,2.49-4.83,9.38a46.31,46.31,0,0,1,1.45,5.41c1.74,8.81-3.17,19.36-12.15,19.13-.52,0-2.28.07-2.78,0a16.15,16.15,0,0,1-3.74-.61c-6.86-3.24-8.87-14-5.63-20.89,1.49-3.15,4.36-7.56,3.67-10.87-2-9.84,3.91-23.24,14.79-22.49C171.07,265.32,172.47,268.74,173.62,271.72Z" transform="translate(-115.9 -214.21)" style="fill:#001748"/><path d="M151.42,292.16s7.44-4,7.69-6.39l6.61,4s.61.63,4.49,1.4L169.14,295l-14.94,2.87Z" transform="translate(-115.9 -214.21)" style="fill:#ffb587"/><path d="M172.94,326c-.22-2.74.34-13.81,2.18-17.16l1.17-3.32c2.94-14-9-15.1-9-15.1-6.75,6.7-9.43-2.39-12.89-.05-5.2,8.7-5.68,12.12-3.52,17.12,1.49,3.41,2.12,15.2,1.42,18.67-.82,4.1-6,11.63-5.91,16,.05,2.77,30.94,1.08,31,.11C177.73,338.77,173.26,330.18,172.94,326Z" transform="translate(-115.9 -214.21)" style="fill:#dce6f4"/><path d="M164.48,291.09c-2,.18-2.79.3-4.51-2.89a12.42,12.42,0,0,0-.86-2.43c-1.12-2.7-2-5.39-1.49-8.27a10.5,10.5,0,0,1,1.47-4c1.64-2.06,7.94-3.41,9.64,2.84.06,3.29-.08,8.26-2.66,9.35-2.81,1.2-.37,4.05-.37,4.05A1.36,1.36,0,0,1,164.48,291.09Z" transform="translate(-115.9 -214.21)" style="fill:#ffb587"/><path d="M168.48,290.75l.1,0c3.76.75,6.63,3.85,8.69,7.09,3.57,5.62,9.49,15.72,9.49,15.72l1.44-2.3s5.22,2.86,5.15,6.19l-3.4,3.58c-1.17,1.32-3.26,1.17-5,.77-2-.47-3.56-1.5-5.66-4.82-4.37-6.93-10.48-16.9-10.48-16.9S171.72,292.16,168.48,290.75Z" transform="translate(-115.9 -214.21)" style="fill:#dce6f4"/><path d="M139.42,318.87l-.08,26.55c.62,2.28,1,2.43,1.41,2.56,2.74.37,3-4.58,3.22-5.75.17-.89.23-5,.23-5a14.89,14.89,0,0,1,.22-4.22l3.29-13.41Z" transform="translate(-115.9 -214.21)" style="fill:#ffb587"/><path d="M155.36,290.14a7.4,7.4,0,0,0-2.33.75,11.61,11.61,0,0,0-5.69,6c-1.28,3-2.89,7.27-3.91,10-1.45,3.88-3.16,7.66-3.56,11.78l-.31,3.21s5.49-2.62,5.71.71l2.87-1.32s-4.15,3.12-.12-4a188.57,188.57,0,0,0,8.27-17.57S150.7,293.29,155.36,290.14Z" transform="translate(-115.9 -214.21)" style="fill:#dce6f4"/><path d="M138.53,318.43s5.71,1.29,9.89-.36l-.46,5s-5.63,2.88-9.52-.12Z" transform="translate(-115.9 -214.21)" style="fill:#fafbff"/><circle cx="45.33" cy="61.95" r="0.61" style="fill:#001748"/><circle cx="49.2" cy="61.95" r="0.61" style="fill:#001748"/><polygon points="47.12 63.03 48 65.49 46.42 65.48 47.12 63.03" style="fill:#efa47b"/><path d="M160,275.41l2.07-.73a1.06,1.06,0,0,0-1.35-.57A1.08,1.08,0,0,0,160,275.41Z" transform="translate(-115.9 -214.21)" style="fill:#001748"/><path d="M164.72,281.32l-3.38-.14a1.64,1.64,0,0,0,1.62,1.59A1.66,1.66,0,0,0,164.72,281.32Z" transform="translate(-115.9 -214.21)" style="fill:#ea7d9f"/><path d="M164.42,274.66l2.12.55a1.1,1.1,0,0,0-2.12-.55Z" transform="translate(-115.9 -214.21)" style="fill:#001748"/><path d="M165.1,285.22a4.21,4.21,0,0,1-4.66-.5,2.87,2.87,0,0,0,4,1.18Z" transform="translate(-115.9 -214.21)" style="fill:#efa47b"/><path d="M151.6,310.22a30.14,30.14,0,0,1,2.68,16.85,41.7,41.7,0,0,1-5.5,16.16s-2.48-.15-2.43-1c.5-7.58,3.33-6.58,6-16.93C153,321.3,152.08,312,151.6,310.22Z" transform="translate(-115.9 -214.21)" style="fill:#c5d5e8"/></g></svg>