<svg xmlns="http://www.w3.org/2000/svg" xmlns:xlink="http://www.w3.org/1999/xlink" viewBox="0 0 230 195.91"><defs><clipPath id="a" transform="translate(-1.39 -0.71)"><rect x="19.39" y="48.31" width="80" height="80" style="fill:none"/></clipPath></defs><title>icon-id-front</title><rect width="230" height="140" rx="12.96" style="fill:#edf0f4"/><text transform="translate(42.02 35.69)" style="font-size:36px;fill:#aeb7c1;font-family:GillSans, Gill Sans">ID CARD</text><rect x="18" y="47.6" width="80" height="80" style="fill:#fff"/><rect x="18" y="47.6" width="80" height="80" style="fill:none"/><rect x="116" y="87.6" width="48" height="5" style="fill:#aeb7c1"/><rect x="116" y="97.6" width="48" height="5" style="fill:#aeb7c1"/><rect x="116" y="107.6" width="48" height="5" style="fill:#aeb7c1"/><rect x="116" y="47.6" width="96" height="5" style="fill:#aeb7c1"/><rect x="116" y="57.6" width="96" height="5" style="fill:#aeb7c1"/><rect x="116" y="67.6" width="96" height="5" style="fill:#aeb7c1"/><rect x="169" y="87.6" width="43" height="25" style="fill:#aeb7c1"/><g style="clip-path:url(#a)"><path d="M79.92,65.35a21.59,21.59,0,0,1,1.51,6.78c.1,4.57.28,11.84-4.56,17.27-3.67,4.13-12.24,4.29-8.32,16.12A80.73,80.73,0,0,1,71,114.84c3,15.16-5.45,33.32-20.9,32.92-.89,0-3.91.13-4.78,0-1.32-.21-4.81-.28-6.44-1-11.81-5.58-15.26-24.14-9.68-35.94,2.56-5.43,7.49-13,6.32-18.72C32.1,75.13,42.28,52.06,61,53.36,75.54,54.35,78,60.23,79.92,65.35Z" transform="translate(-1.39 -0.71)" style="fill:#001748"/><path d="M41.72,100.53s12.81-6.85,13.24-11l11.37,6.85s1,1.08,7.74,2.4l-1.85,6.63L46.5,110.33Z" transform="translate(-1.39 -0.71)" style="fill:#ffb587"/><path d="M78.75,158.74c-.37-4.72.59-23.76,3.76-29.53l2-5.71c5.06-24.08-15.55-26-15.55-26-11.63,11.53-16.23-4.12-22.18-.08-9,15-9.78,20.85-6,29.45C43.3,132.75,44.38,153,43.17,159c-1.42,7.06-10.32,20-10.17,27.59.09,4.78,53.24,1.86,53.39.19C87,180.73,79.31,166,78.75,158.74Z" transform="translate(-1.39 -0.71)" style="fill:#dce6f4"/><path d="M64.2,98.68c-3.39.31-4.81.52-7.77-5A21.27,21.27,0,0,0,55,89.52C53,84.88,51.58,80.26,52.4,75.3a18.11,18.11,0,0,1,2.52-6.84c2.82-3.56,13.66-5.88,16.6,4.87.09,5.68-.14,14.22-4.58,16.1-4.84,2.07-.64,7-.64,7A2.33,2.33,0,0,1,64.2,98.68Z" transform="translate(-1.39 -0.71)" style="fill:#ffb587"/><path d="M71.07,98.09l.19,0c6.47,1.29,11.41,6.63,14.95,12.2,6.15,9.67,16.33,27.06,16.33,27.06l2.48-4s9,4.91,8.86,10.65L108,150.24c-2,2.27-5.61,2-8.57,1.31-3.42-.8-6.13-2.57-9.74-8.28-7.52-11.93-18-29.08-18-29.08S76.65,100.53,71.07,98.09Z" transform="translate(-1.39 -0.71)" style="fill:#dce6f4"/><path d="M21.07,146.48l-.13,45.7c1.07,3.92,1.72,4.17,2.42,4.4,4.72.64,5.15-7.89,5.54-9.89.29-1.53.4-8.58.4-8.58a25.13,25.13,0,0,1,.38-7.25l5.66-23.08Z" transform="translate(-1.39 -0.71)" style="fill:#ffb587"/><path d="M48.51,97.05a13.08,13.08,0,0,0-4,1.29,20,20,0,0,0-9.78,10.26c-2.2,5.16-5,12.51-6.73,17.17-2.5,6.67-5.43,13.19-6.13,20.27l-.54,5.51s9.46-4.5,9.83,1.24l4.94-2.27s-7.14,5.37-.2-6.9,14.23-30.23,14.23-30.23S40.49,102.47,48.51,97.05Z" transform="translate(-1.39 -0.71)" style="fill:#dce6f4"/><path d="M19.55,145.74s9.82,2.22,17-.63l-.79,8.68s-9.7,5-16.39-.22Z" transform="translate(-1.39 -0.71)" style="fill:#fafbff"/><circle cx="57.22" cy="72.29" r="1.05" style="fill:#001748"/><circle cx="63.87" cy="72.29" r="1.05" style="fill:#001748"/><polygon points="60.3 74.16 61.8 78.39 59.09 78.38 60.3 74.16" style="fill:#efa47b"/><path d="M56.48,71.69,60,70.44a1.82,1.82,0,0,0-2.33-1A1.85,1.85,0,0,0,56.48,71.69Z" transform="translate(-1.39 -0.71)" style="fill:#001748"/><path d="M64.62,81.87l-5.83-.24a2.81,2.81,0,0,0,2.79,2.73A2.86,2.86,0,0,0,64.62,81.87Z" transform="translate(-1.39 -0.71)" style="fill:#ea7d9f"/><path d="M64.09,70.4l3.65,1a1.81,1.81,0,0,0-1.39-2.11A1.85,1.85,0,0,0,64.09,70.4Z" transform="translate(-1.39 -0.71)" style="fill:#001748"/><path d="M65.27,88.58s-4.45,2.41-8-.86c0,0,2.46,4.55,6.9,2Z" transform="translate(-1.39 -0.71)" style="fill:#efa47b"/><path d="M42,131.61a51.84,51.84,0,0,1,4.63,29,72,72,0,0,1-9.47,27.82s-4.28-.26-4.19-1.8c.87-13,5.73-11.32,10.3-29.14C44.47,150.66,42.86,134.6,42,131.61Z" transform="translate(-1.39 -0.71)" style="fill:#c5d5e8"/></g></svg>