<svg id="OBJECTS" xmlns="http://www.w3.org/2000/svg" xmlns:xlink="http://www.w3.org/1999/xlink" viewBox="0 0 230 154.09"><defs><clipPath id="clip-path" transform="translate(-115.9 -214.21)"><rect x="138.44" y="261.81" width="57.44" height="57.44" style="fill:none"/></clipPath></defs><title>icon-drivers-license-front</title><rect width="230" height="140" rx="12.96" style="fill:#edf0f4"/><text transform="translate(19.86 32.96)" style="font-size:32px;fill:#aeb7c1;font-family:GillSans, Gill Sans">Driving license</text><rect x="22.54" y="47.6" width="57.44" height="57.44" style="fill:#fff"/><rect x="18" y="47.6" width="80" height="80" style="fill:none"/><rect x="90.94" y="91.41" width="60.53" height="5.48" style="fill:#aeb7c1"/><rect x="90.94" y="102.36" width="60.53" height="5.48" style="fill:#aeb7c1"/><rect x="22.54" y="113.32" width="128.93" height="5.48" style="fill:#aeb7c1"/><rect x="90.94" y="47.6" width="121.06" height="5.48" style="fill:#aeb7c1"/><rect x="90.94" y="58.55" width="121.06" height="5.48" style="fill:#aeb7c1"/><rect x="90.94" y="69.5" width="121.06" height="5.48" style="fill:#aeb7c1"/><rect x="157.78" y="91.41" width="54.22" height="27.38" style="fill:#aeb7c1"/><g style="clip-path:url(#clip-path)"><path d="M181.9,274.05a15.35,15.35,0,0,1,1.09,4.87c.07,3.28.2,8.5-3.28,12.4-2.63,3-8.79,3.08-6,11.58a57.76,57.76,0,0,1,1.79,6.68c2.15,10.9-3.92,23.94-15,23.65-.64,0-2.81.09-3.43,0-1-.16-3.46-.2-4.63-.75-8.48-4-11-17.34-7-25.82,1.84-3.89,5.38-9.34,4.54-13.44-2.48-12.15,4.82-28.71,18.26-27.78C178.76,266.15,180.49,270.38,181.9,274.05Z" transform="translate(-115.9 -214.21)" style="fill:#001748"/><path d="M154.48,299.31s9.19-4.91,9.5-7.9l8.16,4.91s.75.78,5.56,1.73l-1.33,4.76-18.46,3.54Z" transform="translate(-115.9 -214.21)" style="fill:#ffb587"/><path d="M181.06,341.11c-.26-3.39.42-17.06,2.7-21.2l1.44-4.1c3.64-17.3-11.16-18.66-11.16-18.66-8.35,8.28-11.66-3-15.93-.06-6.43,10.74-7,15-4.34,21.15,1.83,4.21,2.61,18.77,1.75,23.07-1,5.07-7.42,14.37-7.31,19.81.07,3.43,38.23,1.34,38.34.14C187,356.9,181.46,346.29,181.06,341.11Z" transform="translate(-115.9 -214.21)" style="fill:#dce6f4"/><path d="M170.61,298c-2.43.23-3.45.38-5.57-3.57a14.94,14.94,0,0,0-1.06-3c-1.39-3.33-2.43-6.65-1.84-10.21a13,13,0,0,1,1.81-4.92c2-2.55,9.81-4.21,11.92,3.5.07,4.08-.1,10.21-3.29,11.56-3.47,1.49-.46,5-.46,5A1.66,1.66,0,0,1,170.61,298Z" transform="translate(-115.9 -214.21)" style="fill:#ffb587"/><path d="M175.55,297.56l.13,0c4.65.93,8.2,4.76,10.74,8.76,4.41,6.94,11.73,19.43,11.73,19.43l1.78-2.85s6.45,3.53,6.36,7.65L202.08,335c-1.44,1.63-4,1.44-6.14.94-2.46-.58-4.41-1.85-7-5.95-5.4-8.57-12.95-20.88-12.95-20.88S179.56,299.31,175.55,297.56Z" transform="translate(-115.9 -214.21)" style="fill:#dce6f4"/><path d="M139.64,332.31l-.09,32.81c.77,2.82,1.23,3,1.74,3.16,3.39.46,3.69-5.66,4-7.1.21-1.1.28-6.16.28-6.16a18.57,18.57,0,0,1,.27-5.21l4.07-16.57Z" transform="translate(-115.9 -214.21)" style="fill:#ffb587"/><path d="M159.35,296.81a9.26,9.26,0,0,0-2.89.93,14.34,14.34,0,0,0-7,7.37c-1.58,3.7-3.57,9-4.83,12.33-1.8,4.79-3.9,9.46-4.4,14.55l-.39,4s6.79-3.23,7.06.89l3.54-1.63s-5.12,3.85-.14-5a235.26,235.26,0,0,0,10.22-21.71S153.59,300.71,159.35,296.81Z" transform="translate(-115.9 -214.21)" style="fill:#dce6f4"/><path d="M138.55,331.77s7,1.6,12.22-.45l-.57,6.24s-7,3.55-11.76-.16Z" transform="translate(-115.9 -214.21)" style="fill:#fafbff"/><circle cx="50.7" cy="65.33" r="0.75" style="fill:#001748"/><circle cx="55.48" cy="65.33" r="0.75" style="fill:#001748"/><polygon points="52.91 66.67 54 69.71 52.05 69.7 52.91 66.67" style="fill:#efa47b"/><path d="M165.07,278.61l2.56-.9a1.36,1.36,0,0,0-2.56.9Z" transform="translate(-115.9 -214.21)" style="fill:#001748"/><path d="M170.92,285.91l-4.19-.17a2,2,0,0,0,2,2A2.06,2.06,0,0,0,170.92,285.91Z" transform="translate(-115.9 -214.21)" style="fill:#ea7d9f"/><path d="M170.54,277.68l2.62.68a1.36,1.36,0,0,0-2.62-.68Z" transform="translate(-115.9 -214.21)" style="fill:#001748"/><path d="M171.38,290.73s-3.19,1.73-5.76-.61c0,0,1.77,3.26,5,1.45Z" transform="translate(-115.9 -214.21)" style="fill:#efa47b"/><path d="M154.7,321.63A37.29,37.29,0,0,1,158,342.44a51.66,51.66,0,0,1-6.8,20s-3.07-.18-3-1.29c.62-9.36,4.12-8.12,7.39-20.92C156.45,335.31,155.29,323.78,154.7,321.63Z" transform="translate(-115.9 -214.21)" style="fill:#c5d5e8"/></g></svg>